<?xml version="1.0" encoding="utf-8"?>
<!-- Generator: Adobe Illustrator 19.1.0, SVG Export Plug-In . SVG Version: 6.00 Build 0)  -->
<!DOCTYPE svg PUBLIC "-//W3C//DTD SVG 1.1//EN" "http://www.w3.org/Graphics/SVG/1.1/DTD/svg11.dtd">
<svg version="1.1" id="Layer_1" xmlns="http://www.w3.org/2000/svg" xmlns:xlink="http://www.w3.org/1999/xlink" x="0px" y="0px"
	 viewBox="0 0 150 150" style="enable-background:new 0 0 150 150;" xml:space="preserve">
<style type="text/css">
	.st0{clip-path:url(#SVGID_2_);fill:url(#SVGID_3_);}
	.st1{opacity:0.3;clip-path:url(#SVGID_2_);fill:none;stroke:#005D7A;stroke-miterlimit:10;}
	.st2{clip-path:url(#SVGID_2_);}
	.st3{fill:#032454;}
	.st4{fill:#B2E1FE;}
	.st5{fill:#E4F0FC;}
	.st6{fill:#B1E0FD;}
	.st7{fill:#B0DFFC;}
	.st8{fill:#B1DFFD;}
	.st9{fill:#E1EEFA;}
</style>
<g>
	<defs>
		<polyline id="SVGID_1_" points="150,150 0,150 0,0 150,0 		"/>
	</defs>
	<clipPath id="SVGID_2_">
		<use xlink:href="#SVGID_1_"  style="overflow:visible;"/>
	</clipPath>
	<linearGradient id="SVGID_3_" gradientUnits="userSpaceOnUse" x1="75" y1="-3.366949e-009" x2="75" y2="150">
		<stop  offset="0" style="stop-color:#124175"/>
		<stop  offset="0.4747" style="stop-color:#0E3969"/>
		<stop  offset="1" style="stop-color:#082D57"/>
	</linearGradient>
	<rect class="st0" width="150" height="150"/>
	<line class="st1" x1="-11.7" y1="45.3" x2="56.2" y2="-22.5"/>
	<line class="st1" x1="-26.6" y1="-13.3" x2="143.4" y2="156.7"/>
	<line class="st1" x1="120.5" y1="-22" x2="120.5" y2="162"/>
	<g class="st2">
		<path class="st3" d="M18.9,76.1c3.5,0,6.8,0,10.1,0c0-1.3,0-2.4,0-3.5c-3.5,0-6.8,0-10.1,0c0-1.6,0-3,0-4.4c3.6,0,7.2,0,10.8,0
			c0-1.3,0-2.4,0-3.5c-5,0-9.9,0-14.9,0c0,6.8,0,13.5,0,20.3c5,0,10.2,0,15.2,0c0-1.3,0-2.4,0-3.5c-3.8,0-7.4,0-11.2,0
			C18.9,79.7,18.9,78,18.9,76.1z"/>
		<path class="st3" d="M96.7,79.7c-0.9,1.7-2.6,2.5-4.5,2.1c-2.1-0.4-3.2-1.7-3.7-3.7c-0.4-1.7-0.5-3.4-0.3-5.1c0.1-1,0.4-2,0.9-2.9
			c0.9-1.7,2.4-2.3,4.3-2.2c1.9,0.1,3.2,1.1,3.8,3c0,0.1,0.1,0.3,0.2,0.5c1.4-0.3,2.7-0.5,4.1-0.8c-0.8-3.1-2.6-5.1-5.6-5.8
			c-1-0.2-2-0.3-3-0.3c-3.8,0-7,2.2-8.3,5.8c-1,2.9-1.1,6-0.2,8.9c0.4,1.4,1.2,2.5,2.2,3.6c3,3.1,8.2,3.2,11.3,1.4
			c2-1.2,3-3.1,3.6-5.3c-1.4-0.4-2.6-0.8-4-1.3C97.3,78.4,97.1,79.1,96.7,79.7z"/>
		<path class="st3" d="M55.2,73.7c-0.3-1.7-1.2-2.8-2.8-3.4c-2.1-0.7-4-0.4-5.7,1c-0.2,0.2-0.4,0.4-0.8,0.6c0-2.5,0-4.8,0-7.2
			c-1.3,0-2.5,0-3.9,0c0,6.8,0,13.5,0,20.3c1.4,0,2.7,0,3.9,0c0-0.3,0-0.6,0-0.9c0-2.3,0-4.6,0-6.8c0-0.9,0.2-1.9,0.5-2.8
			c0.4-1.1,1.9-1.8,3.1-1.5c1.2,0.2,1.7,0.9,1.8,2.4c0,0.2,0,0.4,0,0.6c0,2.7,0,5.5,0,8.2c0,0.3,0,0.6,0,0.9c1.3,0,2.6,0,3.9,0
			c0-0.2,0-0.3,0-0.4c0-3,0-6.1,0-9.1C55.4,74.9,55.3,74.3,55.2,73.7z"/>
		<path class="st3" d="M116.4,80.1c0-1,0-2,0-2.9c0-1.1,0-2.3-0.1-3.4c-0.1-1.9-1.3-2.9-3-3.4c-2-0.5-4-0.5-6,0
			c-1.9,0.5-3.2,2.2-3.5,4.1c0.9,0.1,1.9,0.3,2.8,0.4c0.2,0,0.4,0,0.6,0c0.8-1.6,1.3-2,3.3-1.8c1.5,0.2,1.9,0.8,1.8,2.5
			c-0.5,0.2-1.1,0.3-1.6,0.4c-1.6,0.4-3.2,0.7-4.8,1.2c-1.9,0.6-2.8,2.3-2.7,4.3c0.1,1.8,1.4,3.3,3.3,3.8c2,0.5,3.9,0.1,5.6-1.1
			c0.2-0.1,0.4-0.2,0.6-0.4c0.2,0.5,0.3,0.9,0.5,1.4c1.3,0,2.6,0,3.9,0C116.5,83.3,116.4,81.7,116.4,80.1z M112.4,80.7
			c-0.3,1.5-2.5,2.5-3.9,1.7c-0.7-0.4-1.1-1-1-1.8c0-0.7,0.5-1.2,1.2-1.4c0.4-0.1,0.8-0.3,1.3-0.4c0.9-0.2,1.7-0.4,2.7-0.6
			C112.6,79.1,112.6,79.9,112.4,80.7z"/>
		<path class="st3" d="M71.6,78.8c-0.2-1.6-0.3-2.9-0.7-4.2c-0.8-2.6-2.6-4.2-5.3-4.5c-2.7-0.3-5,0.5-6.6,2.8
			c-1.8,2.6-1.7,7.3,0.1,9.9c0.6,0.9,1.3,1.6,2.3,2c2.1,0.9,4.3,1,6.5,0.1c1.8-0.7,2.8-2.1,3.4-4c-0.7-0.1-1.3-0.2-2-0.3
			c-0.6-0.1-1.3-0.1-1.9-0.2c-0.9,1.8-1.8,2.3-3.4,1.9c-1.4-0.4-2.3-1.9-2.1-3.5C65,78.8,68.2,78.8,71.6,78.8z M63,73.5
			c0.9-0.7,1.9-0.7,2.9-0.2c1.2,0.7,1.5,1.7,1.6,3.1c-1.9,0-3.7,0-5.7,0C61.7,75.2,62.1,74.2,63,73.5z"/>
		<path class="st3" d="M136.4,79.5c-0.1,0.4-0.2,0.6-0.3,0.9c-0.4,1.2-1.2,1.9-2.4,1.9c-1.2,0-2.2-0.4-2.7-1.5
			c-0.9-2.1-0.9-4.2-0.1-6.3c0.4-1.1,1.6-1.7,2.7-1.6c1.2,0.1,2,0.7,2.4,1.9c0,0.1,0.1,0.2,0.2,0.4c1.3-0.2,2.6-0.3,3.9-0.5
			c-0.7-2.4-1.9-4.1-4.3-4.6c-1.1-0.2-2.2-0.3-3.3-0.2c-2.7,0.3-4.6,1.7-5.5,4.3c-0.8,2.2-0.8,4.5,0,6.8c0.7,2.1,2.2,3.5,4.4,4
			c1.6,0.4,3.3,0.4,4.9-0.1c2.2-0.7,3.9-2.8,4-5C138.9,79.8,137.7,79.7,136.4,79.5z"/>
		<path class="st3" d="M38.6,82.2c-0.8,0.2-1.3-0.1-1.4-1c0-0.3-0.1-0.6-0.1-0.9c0-2,0-3.9,0-5.9c0-0.3,0-0.6,0-1.1
			c0.9,0,1.9,0,2.7,0c0-1.1,0-2,0-3c-0.8,0-1.7,0-2.7,0c0-1.7,0-3.4,0-5.2c-1.4,0.9-2.7,1.6-3.9,2.4c0,0.9,0,1.9,0,2.8
			c-0.6,0-1.1,0-1.7,0c0,0.9,0,1.9,0,3c0.6,0,1.1,0,1.7,0c0,0.3,0,0.6,0,0.9c0,2.1,0,4.3,0,6.4c0,0.8,0.1,1.6,0.2,2.3
			c0.1,0.9,0.6,1.6,1.5,2c1.8,0.8,3.5,0.5,5.3-0.1c-0.1-1-0.2-1.9-0.3-2.9C39.3,82,39,82.1,38.6,82.2z"/>
		<path class="st3" d="M119.9,85.1c1.3,0,2.5,0,3.9,0c0-6.8,0-13.5,0-20.3c-1.4,0-2.7,0-3.9,0C119.9,71.5,119.9,78.3,119.9,85.1z"/>
		<path class="st3" d="M80.1,70c-1.2,0.2-1.9,1.1-2.5,2c0,0-0.1-0.1-0.1-0.1c0-0.5,0-1,0-1.7c-1.3,0-2.4,0-3.6,0c0,5,0,9.9,0,14.8
			c1.4,0,2.6,0,4,0c0-0.5,0-0.7,0-1c0-2.5,0.1-5,0.2-7.5c0-0.6,0.2-1.3,0.5-1.9c0.5-1.1,1.4-1.5,2.5-1.1c0.4,0.1,0.8,0.3,1.2,0.5
			c0.4-1.1,0.8-2.2,1.2-3.3C82.4,70,81.3,69.8,80.1,70z"/>
	</g>
	<g class="st2">
		<path class="st4" d="M17.5,73.8c3.5,0,6.8,0,10.1,0c0-1.3,0-2.4,0-3.5c-3.5,0-6.8,0-10.1,0c0-1.6,0-3,0-4.4c3.6,0,7.2,0,10.8,0
			c0-1.3,0-2.4,0-3.5c-5,0-9.9,0-14.9,0c0,6.8,0,13.5,0,20.3c5,0,10.2,0,15.2,0c0-1.3,0-2.4,0-3.5c-3.8,0-7.4,0-11.2,0
			C17.5,77.4,17.5,75.7,17.5,73.8z"/>
		<path class="st5" d="M95.4,77.4c-0.9,1.7-2.6,2.5-4.5,2.1c-2.1-0.4-3.2-1.7-3.7-3.7c-0.4-1.7-0.5-3.4-0.3-5.1c0.1-1,0.4-2,0.9-2.9
			c0.9-1.7,2.4-2.3,4.3-2.2c1.9,0.1,3.2,1.1,3.8,3c0,0.1,0.1,0.3,0.2,0.5c1.4-0.3,2.7-0.5,4.1-0.8c-0.8-3.1-2.6-5.1-5.6-5.8
			c-1-0.2-2-0.3-3-0.3c-3.8,0-7,2.2-8.3,5.8c-1,2.9-1.1,6-0.2,8.9c0.4,1.4,1.2,2.5,2.2,3.6c3,3.1,8.2,3.2,11.3,1.4
			c2-1.2,3-3.1,3.6-5.3c-1.4-0.4-2.6-0.8-4-1.3C95.9,76.1,95.7,76.8,95.4,77.4z"/>
		<path class="st6" d="M53.9,71.4c-0.3-1.7-1.2-2.8-2.8-3.4c-2.1-0.7-4-0.4-5.7,1c-0.2,0.2-0.4,0.4-0.8,0.6c0-2.5,0-4.8,0-7.2
			c-1.3,0-2.5,0-3.9,0c0,6.8,0,13.5,0,20.3c1.4,0,2.7,0,3.9,0c0-0.3,0-0.6,0-0.9c0-2.3,0-4.6,0-6.8c0-0.9,0.2-1.9,0.5-2.8
			c0.4-1.1,1.9-1.8,3.1-1.5c1.2,0.2,1.7,0.9,1.8,2.4c0,0.2,0,0.4,0,0.6c0,2.7,0,5.5,0,8.2c0,0.3,0,0.6,0,0.9c1.3,0,2.6,0,3.9,0
			c0-0.2,0-0.3,0-0.4c0-3,0-6.1,0-9.1C54,72.6,54,72,53.9,71.4z"/>
		<path class="st5" d="M115.1,77.8c0-1,0-2,0-2.9c0-1.1,0-2.3-0.1-3.4c-0.1-1.9-1.3-2.9-3-3.4c-2-0.5-4-0.5-6,0
			c-1.9,0.5-3.2,2.2-3.5,4.1c0.9,0.1,1.9,0.3,2.8,0.4c0.2,0,0.4,0,0.6,0c0.8-1.6,1.3-2,3.3-1.8c1.5,0.2,1.9,0.8,1.8,2.5
			c-0.5,0.2-1.1,0.3-1.6,0.4c-1.6,0.4-3.2,0.7-4.8,1.2c-1.9,0.6-2.8,2.3-2.7,4.3c0.1,1.8,1.4,3.3,3.3,3.8c2,0.5,3.9,0.1,5.6-1.1
			c0.2-0.1,0.4-0.2,0.6-0.4c0.2,0.5,0.3,0.9,0.5,1.4c1.3,0,2.6,0,3.9,0C115.1,81,115.1,79.4,115.1,77.8z M111.1,78.4
			c-0.3,1.5-2.5,2.5-3.9,1.7c-0.7-0.4-1.1-1-1-1.8c0-0.7,0.5-1.2,1.2-1.4c0.4-0.1,0.8-0.3,1.3-0.4c0.9-0.2,1.7-0.4,2.7-0.6
			C111.2,76.8,111.2,77.6,111.1,78.4z"/>
		<path class="st7" d="M70.2,76.5c-0.2-1.6-0.3-2.9-0.7-4.2c-0.8-2.6-2.6-4.2-5.3-4.5c-2.7-0.3-5,0.5-6.6,2.8
			c-1.8,2.6-1.7,7.3,0.1,9.9c0.6,0.9,1.3,1.6,2.3,2c2.1,0.9,4.3,1,6.5,0.1c1.8-0.7,2.8-2.1,3.4-4c-0.7-0.1-1.3-0.2-2-0.3
			c-0.6-0.1-1.3-0.1-1.9-0.2c-0.9,1.8-1.8,2.3-3.4,1.9c-1.4-0.4-2.3-1.9-2.1-3.5C63.6,76.5,66.8,76.5,70.2,76.5z M61.7,71.2
			c0.9-0.7,1.9-0.7,2.9-0.2c1.2,0.7,1.5,1.7,1.6,3.1c-1.9,0-3.7,0-5.7,0C60.4,72.9,60.7,71.9,61.7,71.2z"/>
		<path class="st5" d="M135,77.2c-0.1,0.4-0.2,0.6-0.3,0.9c-0.4,1.2-1.2,1.9-2.4,1.9c-1.2,0-2.2-0.4-2.7-1.5
			c-0.9-2.1-0.9-4.2-0.1-6.3c0.4-1.1,1.6-1.7,2.7-1.6c1.2,0.1,2,0.7,2.4,1.9c0,0.1,0.1,0.2,0.2,0.4c1.3-0.2,2.6-0.3,3.9-0.5
			c-0.7-2.4-1.9-4.1-4.3-4.6c-1.1-0.2-2.2-0.3-3.3-0.2c-2.7,0.3-4.6,1.7-5.5,4.3c-0.8,2.2-0.8,4.5,0,6.8c0.7,2.1,2.2,3.5,4.4,4
			c1.6,0.4,3.3,0.4,4.9-0.1c2.2-0.7,3.9-2.8,4-5C137.6,77.5,136.3,77.4,135,77.2z"/>
		<path class="st8" d="M37.3,79.9c-0.8,0.2-1.3-0.1-1.4-1c0-0.3-0.1-0.6-0.1-0.9c0-2,0-3.9,0-5.9c0-0.3,0-0.6,0-1.1
			c0.9,0,1.9,0,2.7,0c0-1.1,0-2,0-3c-0.8,0-1.7,0-2.7,0c0-1.7,0-3.4,0-5.2c-1.4,0.9-2.7,1.6-3.9,2.4c0,0.9,0,1.9,0,2.8
			c-0.6,0-1.1,0-1.7,0c0,0.9,0,1.9,0,3c0.6,0,1.1,0,1.7,0c0,0.3,0,0.6,0,0.9c0,2.1,0,4.3,0,6.4c0,0.8,0.1,1.6,0.2,2.3
			c0.1,0.9,0.6,1.6,1.5,2c1.8,0.8,3.5,0.5,5.3-0.1c-0.1-1-0.2-1.9-0.3-2.9C38,79.7,37.6,79.8,37.3,79.9z"/>
		<path class="st9" d="M118.5,82.8c1.3,0,2.5,0,3.9,0c0-6.8,0-13.5,0-20.3c-1.4,0-2.7,0-3.9,0C118.5,69.2,118.5,76,118.5,82.8z"/>
		<path class="st6" d="M78.8,67.7c-1.2,0.2-1.9,1.1-2.5,2c0,0-0.1-0.1-0.1-0.1c0-0.5,0-1,0-1.7c-1.3,0-2.4,0-3.6,0c0,5,0,9.9,0,14.8
			c1.4,0,2.6,0,4,0c0-0.5,0-0.7,0-1c0-2.5,0.1-5,0.2-7.5c0-0.6,0.2-1.3,0.5-1.9c0.5-1.1,1.4-1.5,2.5-1.1c0.4,0.1,0.8,0.3,1.2,0.5
			c0.4-1.1,0.8-2.2,1.2-3.3C81,67.7,79.9,67.5,78.8,67.7z"/>
	</g>
	<line class="st1" x1="-7.1" y1="102.3" x2="51.6" y2="161"/>
</g>
</svg>
